<?xml version="1.0" standalone="no"?><!DOCTYPE svg PUBLIC "-//W3C//DTD SVG 1.1//EN" "http://www.w3.org/Graphics/SVG/1.1/DTD/svg11.dtd"><svg t="1662884413777" class="icon" viewBox="0 0 1024 1024" version="1.1" xmlns="http://www.w3.org/2000/svg" p-id="4593" xmlns:xlink="http://www.w3.org/1999/xlink" width="200" height="200"><path d="M901.12 92.16H122.88c-39.3216 0-71.68 32.3584-71.68 71.68v696.32c0 39.3216 32.3584 71.68 71.68 71.68h778.24c39.3216 0 71.68-32.3584 71.68-71.68V163.84c0-39.3216-32.3584-71.68-71.68-71.68z m-778.24 61.44h778.24c5.7344 0 10.24 4.5056 10.24 10.24v174.08h-798.72V163.84c0-5.7344 4.5056-10.24 10.24-10.24z m778.24 716.8H122.88c-5.7344 0-10.24-4.5056-10.24-10.24V399.36h798.72V860.16c0 5.7344-4.5056 10.24-10.24 10.24z" fill="#707070" p-id="4594"></path><path d="M204.8 276.48h40.96c16.7936 0 30.72-13.9264 30.72-30.72s-13.9264-30.72-30.72-30.72H204.8c-16.7936 0-30.72 13.9264-30.72 30.72s13.9264 30.72 30.72 30.72zM368.64 276.48h40.96c16.7936 0 30.72-13.9264 30.72-30.72s-13.9264-30.72-30.72-30.72H368.64c-16.7936 0-30.72 13.9264-30.72 30.72s13.9264 30.72 30.72 30.72zM722.944 520.192h-421.888c-16.7936 0-30.72 13.9264-30.72 30.72s13.9264 30.72 30.72 30.72h421.888c16.7936 0 30.72-13.9264 30.72-30.72s-13.9264-30.72-30.72-30.72zM572.2112 669.696H301.056c-16.7936 0-30.72 13.9264-30.72 30.72s13.9264 30.72 30.72 30.72h271.1552c16.7936 0 30.72-13.9264 30.72-30.72s-13.9264-30.72-30.72-30.72z" fill="#707070" p-id="4595"></path></svg>